# xmcd CD database file
#
# Track frame offsets:
#	150
#	14292
#	27464
#	45549
#	63413
#	77423
#	92394
#	116094
#	129654
#	148104
#	162954
#	178404
#
# Disc length: 2692 seconds
#
# Revision: 0
# Processed by: cddbd v1.5.2PL0 Copyright (c) Steve Scherf et al.
# Submitted via: CDex 1.70beta2
#
DISCID=9e0a820c
DTITLE=Synje Norland - Skipping Stones
DYEAR=2007
DGENRE=Blues
TTITLE0=Little Wonder
TTITLE1=The One
TTITLE2=Apologize
TTITLE3=The Lonesome Side
TTITLE4=Tried So Hard
TTITLE5=Dreaming Of You
TTITLE6=The Loud Scream
TTITLE7=Milky Windows
TTITLE8=Hold On To The Ground
TTITLE9=The Year Before We Died
TTITLE10=Goodbye
TTITLE11=Godsend
EXTD=YEAR: 2007
EXTT0=
EXTT1=
EXTT2=
EXTT3=
EXTT4=
EXTT5=
EXTT6=
EXTT7=
EXTT8=
EXTT9=
EXTT10=
EXTT11=
PLAYORDER=
